<svg width="24" height="24" viewBox="0 0 24 24" fill="none" xmlns="http://www.w3.org/2000/svg">
<path d="M9.51577 3C13.5998 3 17.0315 6.09026 17.0315 10.046C17.0315 14.0018 13.5998 17.0921 9.51577 17.0921C8.818 17.0921 8.14092 17.0028 7.49745 16.835L4.78878 18.3398C3.72166 18.9326 2.45679 17.9806 2.7313 16.7911L3.35584 14.0847C2.50521 12.9459 2 11.5534 2 10.046C2 6.09026 5.4317 3 9.51577 3Z" fill="white" fill-opacity="0.48"/>
<path d="M19.0001 10.05C19.0001 14.6921 15.3313 18.5179 10.6052 19.0395C11.7475 19.6905 13.0845 20.0625 14.5 20.0625C15.1963 20.0625 15.872 19.9734 16.5141 19.806L19.2171 21.3076C20.2819 21.8992 21.5442 20.9492 21.2702 19.7621L20.647 17.0615C21.4958 15.9251 22 14.5354 22 13.0312C22 10.4859 20.5762 8.2997 18.4722 7.06773C18.8142 8.00156 19.0001 9.00512 19.0001 10.05Z" fill="white" fill-opacity="0.48"/>
</svg>
