<svg width="16" height="16" viewBox="0 0 16 16" fill="none" xmlns="http://www.w3.org/2000/svg">
<path fill-rule="evenodd" clip-rule="evenodd" d="M13.1854 7.52861C14.4872 6.22687 14.4872 4.11632 13.1854 2.81457C11.8837 1.51282 9.77314 1.51282 8.47139 2.81457C7.50486 3.7811 7.25596 5.19351 7.72471 6.38968L2.81454 11.2998C2.29384 11.8205 2.29384 12.6648 2.81454 13.1855C3.33523 13.7062 4.17945 13.7062 4.70015 13.1855C5.22085 13.7062 6.06507 13.7062 6.58577 13.1855L7.52858 12.2427C8.04928 11.722 8.04928 10.8777 7.52858 10.357L9.61032 8.2753C10.8065 8.74404 12.2189 8.49514 13.1854 7.52861ZM11.7712 6.1144C11.2505 6.6351 10.4063 6.6351 9.8856 6.1144C9.3649 5.5937 9.3649 4.74948 9.8856 4.22878C10.4063 3.70808 11.2505 3.70808 11.7712 4.22878C12.2919 4.74948 12.2919 5.5937 11.7712 6.1144Z" fill="#E4FBFF"/>
</svg>
