<svg width="16" height="16" viewBox="0 0 16 16" fill="none" xmlns="http://www.w3.org/2000/svg">
<path d="M10.1111 7.33337C10.1147 7.29078 10.1184 7.24623 10.1223 7.19958L10.358 4.37111C10.4553 3.20303 10.504 2.61898 10.2937 2.32158C10.1111 2.06338 9.8172 1.90674 9.50107 1.8992C9.13693 1.89051 8.67929 2.25662 7.764 2.98885L4.22843 5.81731C3.13606 6.6912 2.58988 7.12815 2.52961 7.51133C2.47745 7.84301 2.59521 8.17873 2.84314 8.40513C3.12958 8.6667 3.82903 8.6667 5.22794 8.6667H5.88898C5.88536 8.70929 5.88165 8.75384 5.87776 8.8005L5.64206 11.629C5.54472 12.797 5.49605 13.3811 5.70633 13.6785C5.8889 13.9367 6.18284 14.0933 6.49898 14.1009C6.86311 14.1096 7.32076 13.7434 8.23604 13.0112L11.7716 10.1828C12.864 9.30887 13.4102 8.87192 13.4704 8.48874C13.5226 8.15706 13.4048 7.82135 13.1569 7.59494C12.8705 7.33337 12.171 7.33337 10.7721 7.33337H10.1111Z" fill="#E4FBFF"/>
</svg>
