<svg width="16" height="16" viewBox="0 0 16 16" fill="none" xmlns="http://www.w3.org/2000/svg">
<path fill-rule="evenodd" clip-rule="evenodd" d="M4.18522 8.54251L3.00285 8.14839C2.87609 8.10616 2.78089 8.07444 2.69113 8.03709C1.94587 7.72704 1.38116 7.09611 1.1553 6.32117C1.12809 6.22782 1.10708 6.1297 1.0791 5.99904L1.06642 5.93991C1.03065 5.77338 1.00026 5.6319 0.989357 5.50637C0.896341 4.43527 1.66675 3.48228 2.73356 3.34881C2.8586 3.33316 3.00329 3.33323 3.17363 3.33332L3.9993 3.33333C4.00007 2.98353 4.00688 2.79215 4.06762 2.63649C4.16924 2.37605 4.37525 2.17004 4.6357 2.06841C4.81102 2 5.03164 2 5.47289 2H10.5255C10.9668 2 11.1874 2 11.3627 2.06841C11.6232 2.17004 11.8292 2.37605 11.9308 2.63649C11.9915 2.79215 11.9983 2.98353 11.9991 3.33333L12.8248 3.33332C12.9951 3.33323 13.1398 3.33316 13.2649 3.34881C14.3317 3.48228 15.1021 4.43527 15.0091 5.50637C14.9982 5.63191 14.9678 5.77337 14.932 5.93991L14.9193 5.99904C14.8913 6.1297 14.8703 6.22782 14.8431 6.32117C14.6173 7.09611 14.0525 7.72704 13.3073 8.03709C13.2175 8.07444 13.1223 8.10616 12.9956 8.14839L11.8132 8.54251C11.3007 10.1606 9.78689 11.3333 7.99921 11.3333C6.21153 11.3333 4.69775 10.1606 4.18522 8.54251ZM3.99921 4.66667H3.21227C2.9815 4.66667 2.92959 4.66801 2.89909 4.67182C2.54349 4.71632 2.28669 5.03398 2.31769 5.39101C2.32035 5.42163 2.32991 5.47267 2.37827 5.69832C2.41281 5.85951 2.42345 5.90717 2.43537 5.94809C2.5483 6.33556 2.83066 6.65102 3.20329 6.80605C3.24264 6.82242 3.28883 6.83826 3.44522 6.89039L3.99921 7.07505V4.66667ZM11.9992 4.66667V7.07505L12.5532 6.89039C12.7096 6.83826 12.7558 6.82242 12.7951 6.80605C13.1678 6.65102 13.4501 6.33556 13.563 5.94809C13.575 5.90717 13.5856 5.85951 13.6201 5.69832C13.6685 5.47267 13.6781 5.42163 13.6807 5.39101C13.7117 5.03398 13.4549 4.71632 13.0993 4.67182C13.0688 4.66801 13.0169 4.66667 12.7861 4.66667H11.9992Z" fill="#E4FBFF"/>
<path d="M11.3325 14.381C11.3325 14.5387 11.2046 14.6667 11.0468 14.6667H4.95159C4.79379 14.6667 4.66587 14.5387 4.66587 14.381C4.66587 13.4342 5.43339 12.6667 6.38016 12.6667L9.61826 12.6667C10.565 12.6667 11.3325 13.4342 11.3325 14.381Z" fill="#E4FBFF"/>
</svg>
