<svg width="36" height="37" viewBox="0 0 36 37" fill="none" xmlns="http://www.w3.org/2000/svg">
<g filter="url(#filter0_i_1_7569)">
<rect x="0.320801" y="18.6021" width="25" height="25" rx="2.98112" transform="rotate(-45 0.320801 18.6021)" fill="#5C5C5C"/>
<path fill-rule="evenodd" clip-rule="evenodd" d="M27.4763 16.4713C28.3914 20.3174 25.0029 24.418 19.9079 25.6303C14.8129 26.8425 9.94083 24.7073 9.02574 20.8612C8.11066 17.0151 11.4991 12.9145 16.5941 11.7022C21.6891 10.49 26.5612 12.6252 27.4763 16.4713ZM13.228 19.95C13.759 21.5775 13.4584 23.1354 12.5567 23.4296C11.6549 23.7237 10.4935 22.6428 9.96252 21.0153C9.43156 19.3878 9.73214 17.8299 10.6339 17.5357C11.5356 17.2415 12.6971 18.3224 13.228 19.95ZM23.1024 13.316C18.0967 12.2641 13.8829 14.5705 12.4018 15.8552L12.4085 15.8625C12.3211 15.9373 12.2657 16.0485 12.2657 16.1726C12.2657 16.3979 12.4484 16.5806 12.6738 16.5806C12.8305 16.5806 12.9665 16.4924 13.0349 16.3629C15.8124 13.8568 20.8894 13.2861 23.1024 13.316Z" fill="#333231"/>
</g>
<defs>
<filter id="filter0_i_1_7569" x="0.320801" y="0.924438" width="35.3553" height="35.3553" filterUnits="userSpaceOnUse" color-interpolation-filters="sRGB">
<feFlood flood-opacity="0" result="BackgroundImageFix"/>
<feBlend mode="normal" in="SourceGraphic" in2="BackgroundImageFix" result="shape"/>
<feColorMatrix in="SourceAlpha" type="matrix" values="0 0 0 0 0 0 0 0 0 0 0 0 0 0 0 0 0 0 127 0" result="hardAlpha"/>
<feOffset/>
<feGaussianBlur stdDeviation="2.10531"/>
<feComposite in2="hardAlpha" operator="arithmetic" k2="-1" k3="1"/>
<feColorMatrix type="matrix" values="0 0 0 0 0 0 0 0 0 0 0 0 0 0 0 0 0 0 0.96 0"/>
<feBlend mode="normal" in2="shape" result="effect1_innerShadow_1_7569"/>
</filter>
</defs>
</svg>
