<svg width="36" height="37" viewBox="0 0 36 37" fill="none" xmlns="http://www.w3.org/2000/svg">
<g filter="url(#filter0_i_1_7594)">
<g clip-path="url(#clip0_1_7594)">
<rect x="0.320801" y="18.6021" width="25" height="25" rx="2.94043" transform="rotate(-45 0.320801 18.6021)" fill="#5C5C5C"/>
<path d="M0.619785 14.4088H34.7355V20.3476L17.6776 24.5511L0.619785 20.3476V14.4088Z" stroke="#333231" stroke-width="0.654976"/>
<path d="M7.09167 16.6517L8.41838 16.5688V20.4107L7.09167 20.5213V16.6517Z" fill="#333231"/>
<path d="M15.3835 16.8729L16.7102 16.8729V20.4108L15.3835 20.5213V16.8729Z" fill="#333231"/>
<path fill-rule="evenodd" clip-rule="evenodd" d="M6.81527 17.2045C6.05202 17.2045 5.43329 17.8233 5.43329 18.5865C5.43329 19.3498 6.05202 19.9685 6.81527 19.9685H8.63949C9.40274 19.9685 10.0215 19.3498 10.0215 18.5865C10.0215 17.8233 9.40274 17.2045 8.63949 17.2045H6.81527ZM7.25751 17.8679C6.86062 17.8679 6.53888 18.1896 6.53888 18.5865C6.53888 18.9834 6.86062 19.3052 7.25751 19.3052H8.19726C8.59415 19.3052 8.91589 18.9834 8.91589 18.5865C8.91589 18.1896 8.59415 17.8679 8.19726 17.8679H7.25751Z" fill="#333231"/>
<path fill-rule="evenodd" clip-rule="evenodd" d="M15.3835 19.471H17.2078C17.971 19.471 18.5897 18.8523 18.5897 18.089C18.5897 17.3258 17.971 16.707 17.2078 16.707H15.3835V17.5225C15.5055 17.4272 15.659 17.3704 15.8258 17.3704H16.7655C17.1624 17.3704 17.4842 17.6921 17.4842 18.089C17.4842 18.4859 17.1624 18.8077 16.7655 18.8077H15.8258C15.659 18.8077 15.5055 18.7508 15.3835 18.6555V19.471Z" fill="#333231"/>
<rect x="19.032" y="16.8729" width="1.38198" height="3.37204" fill="#333231"/>
<path d="M11.5693 16.8729H12.9513L11.8457 20.2449H10.4637L11.5693 16.8729Z" fill="#333231"/>
<path d="M24.1177 16.8729H25.4997L24.3941 20.2449H23.0121L24.1177 16.8729Z" fill="#333231"/>
<path d="M13.6699 16.8729H12.2879L13.3935 20.2449H14.7755L13.6699 16.8729Z" fill="#333231"/>
<path d="M23.2332 16.8729H21.8512L23.399 19.1946H24.781L23.2332 16.8729Z" fill="#333231"/>
<path fill-rule="evenodd" clip-rule="evenodd" d="M27.9319 16.707C28.2099 16.707 28.4746 16.7601 28.7149 16.8559L28.8773 17.8089C28.7467 17.7756 28.6051 17.7574 28.4571 17.7574C27.8007 17.7574 27.2686 18.1162 27.2686 18.5589C27.2686 19.0016 27.8007 19.3605 28.4571 19.3605C28.6088 19.3605 28.7538 19.3413 28.8872 19.3064L28.725 20.2579C28.482 20.3562 28.2138 20.4107 27.9319 20.4107C26.8329 20.4107 25.9419 19.5816 25.9419 18.5589C25.9419 17.5361 26.8329 16.707 27.9319 16.707Z" fill="#333231"/>
<path d="M19.3083 16.8729H21.2155L21.5748 17.9232H19.3083V16.8729Z" fill="#333231"/>
<rect x="11.514" y="18.8629" width="2.21117" height="0.884469" fill="#333231"/>
</g>
</g>
<defs>
<filter id="filter0_i_1_7594" x="0.320801" y="0.924438" width="35.3553" height="35.3553" filterUnits="userSpaceOnUse" color-interpolation-filters="sRGB">
<feFlood flood-opacity="0" result="BackgroundImageFix"/>
<feBlend mode="normal" in="SourceGraphic" in2="BackgroundImageFix" result="shape"/>
<feColorMatrix in="SourceAlpha" type="matrix" values="0 0 0 0 0 0 0 0 0 0 0 0 0 0 0 0 0 0 127 0" result="hardAlpha"/>
<feOffset/>
<feGaussianBlur stdDeviation="2.07658"/>
<feComposite in2="hardAlpha" operator="arithmetic" k2="-1" k3="1"/>
<feColorMatrix type="matrix" values="0 0 0 0 0 0 0 0 0 0 0 0 0 0 0 0 0 0 0.96 0"/>
<feBlend mode="normal" in2="shape" result="effect1_innerShadow_1_7594"/>
</filter>
<clipPath id="clip0_1_7594">
<rect x="0.320801" y="18.6021" width="25" height="25" rx="2.94043" transform="rotate(-45 0.320801 18.6021)" fill="white"/>
</clipPath>
</defs>
</svg>
