<svg width="36" height="36" viewBox="0 0 36 36" fill="none" xmlns="http://www.w3.org/2000/svg">
<g filter="url(#filter0_i_1_7619)">
<g clip-path="url(#clip0_1_7619)">
<rect x="0.320801" y="17.7313" width="25" height="25" rx="2.94043" transform="rotate(-45 0.320801 17.7313)" fill="#5C5C5C"/>
<path fill-rule="evenodd" clip-rule="evenodd" d="M14.7225 12.688C12.0818 13.8315 10.2343 16.4608 10.2343 19.5217C10.2343 23.6325 13.5668 26.965 17.6777 26.965C21.7885 26.965 25.121 23.6325 25.121 19.5217C25.121 16.4096 23.2111 13.7436 20.4995 12.6318V13.8664C21.892 14.7893 22.8103 16.3705 22.8103 18.1663C22.8103 21.0132 20.5024 23.3211 17.6555 23.3211C14.8085 23.3211 12.5007 21.0132 12.5007 18.1663C12.5007 16.409 13.3799 14.8572 14.7225 13.9266V12.688Z" fill="#333231"/>
<path d="M7.61249 15.1001L14.7226 13.7003V11.9005C12.5184 11.9005 9.06413 12.5227 7.61249 12.8337V15.1001Z" fill="#333231"/>
<path d="M27.7429 15.1445L20.4995 13.7253V11.9005C22.7449 11.9005 26.264 12.5313 27.7429 12.8467V15.1445Z" fill="#333231"/>
</g>
</g>
<defs>
<filter id="filter0_i_1_7619" x="0.320801" y="0.0536499" width="35.3553" height="35.3553" filterUnits="userSpaceOnUse" color-interpolation-filters="sRGB">
<feFlood flood-opacity="0" result="BackgroundImageFix"/>
<feBlend mode="normal" in="SourceGraphic" in2="BackgroundImageFix" result="shape"/>
<feColorMatrix in="SourceAlpha" type="matrix" values="0 0 0 0 0 0 0 0 0 0 0 0 0 0 0 0 0 0 127 0" result="hardAlpha"/>
<feOffset/>
<feGaussianBlur stdDeviation="2.07658"/>
<feComposite in2="hardAlpha" operator="arithmetic" k2="-1" k3="1"/>
<feColorMatrix type="matrix" values="0 0 0 0 0 0 0 0 0 0 0 0 0 0 0 0 0 0 0.96 0"/>
<feBlend mode="normal" in2="shape" result="effect1_innerShadow_1_7619"/>
</filter>
<clipPath id="clip0_1_7619">
<rect x="0.320801" y="17.7313" width="25" height="25" rx="2.94043" transform="rotate(-45 0.320801 17.7313)" fill="white"/>
</clipPath>
</defs>
</svg>
