<svg width="36" height="36" viewBox="0 0 36 36" fill="none" xmlns="http://www.w3.org/2000/svg">
<g filter="url(#filter0_i_1_7631)">
<rect x="0.320801" y="17.9897" width="25" height="25" rx="2.94043" transform="rotate(-45 0.320801 17.9897)" fill="#5C5C5C"/>
<path fill-rule="evenodd" clip-rule="evenodd" d="M24.7225 13.8124V13.8116C24.7225 13.8116 20.7469 13.4689 18.1422 13.4689C15.5376 13.4689 11.562 13.8116 11.562 13.8116V13.8117C9.01325 13.8183 7.01263 14.2009 6.78545 16.9646H6.21558V17.9243H6.77713C6.97255 20.929 9.29291 22.3111 10.6709 22.3111C13.824 22.3111 17.0455 19.4322 17.0455 16.5534C17.0455 16.2654 16.9932 16.007 16.8979 15.7752C17.2132 15.5598 17.5945 15.4338 18.0051 15.4338C18.4634 15.4338 18.885 15.5907 19.2192 15.8537C19.1432 16.0649 19.1019 16.2974 19.1019 16.5534C19.1019 19.4322 22.3234 22.3111 25.4765 22.3111C26.8545 22.3111 29.1748 20.929 29.3703 17.9243H29.7947V16.9646H29.3619C29.1389 14.2506 27.2056 13.8328 24.7225 13.8124ZM16.5826 15.2577C17.0254 14.951 17.5628 14.7712 18.1422 14.7712C18.6842 14.7712 19.1895 14.9285 19.6149 15.1999C20.024 14.7446 20.6397 14.4342 21.3207 14.2247C20.2834 14.168 19.151 14.1239 18.1422 14.1239C17.0956 14.1239 15.9159 14.1714 14.8475 14.2311C15.5485 14.4494 16.1787 14.7754 16.5826 15.2577ZM9.42344 15.1695C9.51281 15.0802 9.51281 14.9353 9.42344 14.8459C9.33406 14.7565 9.18916 14.7565 9.09978 14.8459L7.59257 16.3531C7.5032 16.4425 7.5032 16.5874 7.59257 16.6767C7.68195 16.7661 7.82685 16.7661 7.91623 16.6767L9.42344 15.1695ZM7.65917 17.7471C7.58537 17.6733 7.58537 17.5537 7.65917 17.4799L10.2266 14.9125C10.3004 14.8387 10.42 14.8387 10.4938 14.9125C10.5676 14.9863 10.5676 15.1059 10.4938 15.1797L7.92642 17.7471C7.85262 17.8209 7.73297 17.8209 7.65917 17.7471Z" fill="#333231"/>
</g>
<defs>
<filter id="filter0_i_1_7631" x="0.320801" y="0.312073" width="35.3553" height="35.3553" filterUnits="userSpaceOnUse" color-interpolation-filters="sRGB">
<feFlood flood-opacity="0" result="BackgroundImageFix"/>
<feBlend mode="normal" in="SourceGraphic" in2="BackgroundImageFix" result="shape"/>
<feColorMatrix in="SourceAlpha" type="matrix" values="0 0 0 0 0 0 0 0 0 0 0 0 0 0 0 0 0 0 127 0" result="hardAlpha"/>
<feOffset/>
<feGaussianBlur stdDeviation="2.07658"/>
<feComposite in2="hardAlpha" operator="arithmetic" k2="-1" k3="1"/>
<feColorMatrix type="matrix" values="0 0 0 0 0 0 0 0 0 0 0 0 0 0 0 0 0 0 0.96 0"/>
<feBlend mode="normal" in2="shape" result="effect1_innerShadow_1_7631"/>
</filter>
</defs>
</svg>
