<svg width="36" height="36" viewBox="0 0 36 36" fill="none" xmlns="http://www.w3.org/2000/svg">
<g filter="url(#filter0_i_1_7576)">
<g clip-path="url(#clip0_1_7576)">
<rect x="0.320801" y="17.7313" width="25" height="25" rx="2.98112" transform="rotate(-45 0.320801 17.7313)" fill="#5C5C5C"/>
<line x1="24.2262" y1="20.4524" x2="34.1867" y2="20.4524" stroke="#333231" stroke-width="1.32808" stroke-linecap="round"/>
<line x1="26.2183" y1="17.7962" x2="36.1789" y2="17.7962" stroke="#333231" stroke-width="1.32808" stroke-linecap="round"/>
<line x1="28.2104" y1="15.1401" x2="38.171" y2="15.1401" stroke="#333231" stroke-width="1.32808" stroke-linecap="round"/>
<path fill-rule="evenodd" clip-rule="evenodd" d="M19.9694 17.4161C21.5203 16.5981 22.6092 15.6241 23.3497 14.5957C23.431 14.7791 23.4988 14.9825 23.5447 15.2008V15.5177V16.4217C23.5007 16.6272 23.4326 16.8364 23.3358 17.0466C22.836 18.1317 21.5321 19.3253 18.6116 20.143C18.435 20.1925 18.3319 20.3757 18.3814 20.5523C18.4308 20.7288 18.614 20.8319 18.7906 20.7825C20.1133 20.4121 21.1477 19.958 21.944 19.4526C22.0527 20.0946 21.9217 20.8835 21.2465 21.4885C20.472 22.1823 18.907 22.7058 15.9383 22.3955C15.9562 22.2247 15.9612 22.0564 15.9534 21.893C15.9264 21.3346 15.7451 20.7994 15.3651 20.4432C14.8149 19.9273 14.2292 19.8034 13.7184 19.8843C13.2261 19.9623 12.8271 20.2257 12.6022 20.4507C12.4725 20.5803 12.4725 20.7905 12.6022 20.9202C12.7318 21.0499 12.9421 21.0499 13.0717 20.9202C13.2179 20.774 13.4945 20.5921 13.8223 20.5401C14.1318 20.4911 14.5111 20.5528 14.911 20.9276C15.1249 21.1282 15.2683 21.4745 15.2901 21.9251C15.3116 22.3708 15.2109 22.8846 14.9777 23.3722C14.5154 24.3389 13.5469 25.1783 12.0204 25.1783C10.4837 25.1783 8.66974 24.0749 7.94629 22.3908C7.58931 21.5598 7.49653 20.5843 7.84006 19.5193C8.14175 18.5839 8.78529 17.5641 9.91007 16.5096L11.4332 15.3672C12.3843 14.8557 13.3753 14.6631 14.4013 14.5269L16.1575 14.3513L16.3269 14.2759C17.3895 14.1023 18.4658 13.8065 19.486 13.0886C20.5174 12.3628 21.6695 11.2467 22.5628 10.2029C23.0101 9.68022 23.3991 9.16817 23.6783 8.72456C23.7264 8.64815 23.7717 8.57306 23.8137 8.49969C24.0716 9.43006 24.1826 10.6556 23.8662 11.9377C23.4492 13.6274 22.2828 15.4451 19.6596 16.8287C19.4975 16.9143 19.4353 17.1151 19.5209 17.2773C19.6064 17.4395 19.8073 17.5016 19.9694 17.4161Z" fill="#333231"/>
</g>
</g>
<defs>
<filter id="filter0_i_1_7576" x="0.320801" y="0.0536499" width="35.3553" height="35.3553" filterUnits="userSpaceOnUse" color-interpolation-filters="sRGB">
<feFlood flood-opacity="0" result="BackgroundImageFix"/>
<feBlend mode="normal" in="SourceGraphic" in2="BackgroundImageFix" result="shape"/>
<feColorMatrix in="SourceAlpha" type="matrix" values="0 0 0 0 0 0 0 0 0 0 0 0 0 0 0 0 0 0 127 0" result="hardAlpha"/>
<feOffset/>
<feGaussianBlur stdDeviation="2.10531"/>
<feComposite in2="hardAlpha" operator="arithmetic" k2="-1" k3="1"/>
<feColorMatrix type="matrix" values="0 0 0 0 0 0 0 0 0 0 0 0 0 0 0 0 0 0 0.96 0"/>
<feBlend mode="normal" in2="shape" result="effect1_innerShadow_1_7576"/>
</filter>
<clipPath id="clip0_1_7576">
<rect x="0.320801" y="17.7313" width="25" height="25" rx="2.98112" transform="rotate(-45 0.320801 17.7313)" fill="white"/>
</clipPath>
</defs>
</svg>
